<svg width="689" height="238" viewBox="0 0 689 238" fill="none" xmlns="http://www.w3.org/2000/svg">
    <path
        d="M663.481 238H25.5185C11.2281 238 0 224.91 0 208.25V29.75C0 13.09 11.2281 0 25.5185 0H663.481C677.772 0 689 13.09 689 29.75V208.25C689 224.91 677.772 238 663.481 238Z"
        fill="black" />
    <path
        d="M663.481 4.76C675.22 4.76 684.917 16.065 684.917 29.75V208.25C684.917 221.935 675.22 233.24 663.481 233.24H25.5185C13.78 233.24 4.08296 221.935 4.08296 208.25V29.75C4.08296 16.065 13.78 4.76 25.5185 4.76H663.481ZM663.481 0H25.5185C11.2281 0 0 13.685 0 29.75V208.25C0 224.91 11.2281 238 25.5185 238H663.481C677.772 238 689 224.91 689 208.25V29.75C689 13.685 677.772 0 663.481 0Z"
        fill="#A6A6A6" />
    <path
        d="M302.556 66.5556C302.556 71.2963 301.37 75.4444 298.407 78.4074C294.852 81.963 290.704 83.7407 285.37 83.7407C280.037 83.7407 275.889 81.963 272.333 78.4074C268.778 74.8518 267 70.7037 267 65.3704C267 60.037 268.778 55.8889 272.333 52.3333C275.889 48.7778 280.037 47 285.37 47C287.741 47 290.111 47.5926 292.481 48.7778C294.852 49.963 296.63 51.1481 297.815 52.9259L294.852 55.8889C292.481 52.9259 289.519 51.7407 285.37 51.7407C281.815 51.7407 278.259 52.9259 275.889 55.8889C272.926 58.2593 271.741 61.8148 271.741 65.963C271.741 70.1111 272.926 73.6667 275.889 76.037C278.852 78.4074 281.815 80.1852 285.37 80.1852C289.519 80.1852 292.481 79 295.444 76.037C297.222 74.2593 298.407 71.8889 298.407 68.9259H285.37V64.1852H302.556V66.5556V66.5556ZM329.815 51.7407H313.815V63H328.63V67.1481H313.815V78.4074H329.815V83.1481H309.074V47.5926H329.815V51.7407ZM349.37 83.1481H344.63V51.7407H334.556V47.5926H359.444V51.7407H349.37V83.1481ZM376.63 83.1481V47.5926H381.37V83.1481H376.63ZM401.518 83.1481H396.778V51.7407H386.704V47.5926H411V51.7407H400.926V83.1481H401.518ZM457.815 78.4074C454.259 81.963 450.111 83.7407 444.778 83.7407C439.444 83.7407 435.296 81.963 431.741 78.4074C428.185 74.8518 426.407 70.7037 426.407 65.3704C426.407 60.037 428.185 55.8889 431.741 52.3333C435.296 48.7778 439.444 47 444.778 47C450.111 47 454.259 48.7778 457.815 52.3333C461.37 55.8889 463.148 60.037 463.148 65.3704C463.148 70.7037 461.37 74.8518 457.815 78.4074ZM435.296 75.4444C437.667 77.8148 441.222 79.5926 444.778 79.5926C448.333 79.5926 451.889 78.4074 454.259 75.4444C456.63 73.0741 458.407 69.5185 458.407 65.3704C458.407 61.2222 457.222 57.6667 454.259 55.2963C451.889 52.9259 448.333 51.1481 444.778 51.1481C441.222 51.1481 437.667 52.3333 435.296 55.2963C432.926 57.6667 431.148 61.2222 431.148 65.3704C431.148 69.5185 432.333 73.0741 435.296 75.4444ZM469.667 83.1481V47.5926H475L492.185 75.4444V47.5926H496.926V83.1481H492.185L473.815 54.1111V83.1481H469.667V83.1481Z"
        fill="white" stroke="white" stroke-width="1.18519" stroke-miterlimit="10" />
    <g clip-path="url(#clip0_153_20)">
        <path d="M154.5 169.742L193 175.104L154.5 190L39 154.25L154.5 169.742V47L193 61.8958V175.104L154.5 169.742Z"
            fill="#CB2E62" />
        <path
            d="M77.5002 70.8335L92.2585 73.8127V95.2627L116 79.771V97.646L91.6168 109.563L116 121.479V139.354L91.6168 123.863V145.313L77.5002 148.292L51.8335 127.438V118.5L66.5918 109.563L51.8335 100.625V91.6877L77.5002 70.8335ZM59.5335 95.2627L77.5002 103.604V82.7502L59.5335 95.2627ZM77.5002 136.375V115.521L59.5335 123.863L77.5002 136.375ZM116 79.771L135.25 85.7293V133.396L116 139.354V79.771Z"
            fill="#CB2E62" />
    </g>
    <path
        d="M298.808 163.488H281.016L278.072 172H268.664L284.728 127.264H295.16L311.224 172H301.752L298.808 163.488ZM296.376 156.32L289.912 137.632L283.448 156.32H296.376ZM326.189 141.664C327.341 140.043 328.919 138.699 330.925 137.632C332.973 136.523 335.298 135.968 337.901 135.968C340.93 135.968 343.661 136.715 346.093 138.208C348.567 139.701 350.509 141.835 351.917 144.608C353.367 147.339 354.093 150.517 354.093 154.144C354.093 157.771 353.367 160.992 351.917 163.808C350.509 166.581 348.567 168.736 346.093 170.272C343.661 171.808 340.93 172.576 337.901 172.576C335.298 172.576 332.994 172.043 330.989 170.976C329.026 169.909 327.426 168.565 326.189 166.944V188.896H317.229V136.544H326.189V141.664ZM344.941 154.144C344.941 152.011 344.493 150.176 343.597 148.64C342.743 147.061 341.591 145.867 340.141 145.056C338.733 144.245 337.197 143.84 335.533 143.84C333.911 143.84 332.375 144.267 330.925 145.12C329.517 145.931 328.365 147.125 327.469 148.704C326.615 150.283 326.189 152.139 326.189 154.272C326.189 156.405 326.615 158.261 327.469 159.84C328.365 161.419 329.517 162.635 330.925 163.488C332.375 164.299 333.911 164.704 335.533 164.704C337.197 164.704 338.733 164.277 340.141 163.424C341.591 162.571 342.743 161.355 343.597 159.776C344.493 158.197 344.941 156.32 344.941 154.144ZM369.564 141.664C370.716 140.043 372.294 138.699 374.3 137.632C376.348 136.523 378.673 135.968 381.276 135.968C384.305 135.968 387.036 136.715 389.468 138.208C391.942 139.701 393.884 141.835 395.292 144.608C396.742 147.339 397.468 150.517 397.468 154.144C397.468 157.771 396.742 160.992 395.292 163.808C393.884 166.581 391.942 168.736 389.468 170.272C387.036 171.808 384.305 172.576 381.276 172.576C378.673 172.576 376.369 172.043 374.364 170.976C372.401 169.909 370.801 168.565 369.564 166.944V188.896H360.604V136.544H369.564V141.664ZM388.316 154.144C388.316 152.011 387.868 150.176 386.972 148.64C386.118 147.061 384.966 145.867 383.516 145.056C382.108 144.245 380.572 143.84 378.908 143.84C377.286 143.84 375.75 144.267 374.3 145.12C372.892 145.931 371.74 147.125 370.844 148.704C369.99 150.283 369.564 152.139 369.564 154.272C369.564 156.405 369.99 158.261 370.844 159.84C371.74 161.419 372.892 162.635 374.3 163.488C375.75 164.299 377.286 164.704 378.908 164.704C380.572 164.704 382.108 164.277 383.516 163.424C384.966 162.571 386.118 161.355 386.972 159.776C387.868 158.197 388.316 156.32 388.316 154.144ZM417.053 149.6C417.053 145.205 418.034 141.28 419.997 137.824C422.002 134.325 424.711 131.616 428.125 129.696C431.581 127.733 435.442 126.752 439.709 126.752C444.701 126.752 449.074 128.032 452.829 130.592C456.583 133.152 459.207 136.693 460.701 141.216H450.397C449.373 139.083 447.922 137.483 446.045 136.416C444.21 135.349 442.077 134.816 439.645 134.816C437.042 134.816 434.717 135.435 432.669 136.672C430.663 137.867 429.085 139.573 427.933 141.792C426.823 144.011 426.269 146.613 426.269 149.6C426.269 152.544 426.823 155.147 427.933 157.408C429.085 159.627 430.663 161.355 432.669 162.592C434.717 163.787 437.042 164.384 439.645 164.384C442.077 164.384 444.21 163.851 446.045 162.784C447.922 161.675 449.373 160.053 450.397 157.92H460.701C459.207 162.485 456.583 166.048 452.829 168.608C449.117 171.125 444.743 172.384 439.709 172.384C435.442 172.384 431.581 171.424 428.125 169.504C424.711 167.541 422.002 164.832 419.997 161.376C418.034 157.92 417.053 153.995 417.053 149.6ZM501.314 153.504C501.314 154.784 501.228 155.936 501.058 156.96H475.138C475.351 159.52 476.247 161.525 477.826 162.976C479.404 164.427 481.346 165.152 483.65 165.152C486.978 165.152 489.346 163.723 490.754 160.864H500.418C499.394 164.277 497.431 167.093 494.53 169.312C491.628 171.488 488.066 172.576 483.842 172.576C480.428 172.576 477.356 171.829 474.626 170.336C471.938 168.8 469.826 166.645 468.29 163.872C466.796 161.099 466.049 157.899 466.049 154.272C466.049 150.603 466.796 147.381 468.29 144.608C469.783 141.835 471.874 139.701 474.562 138.208C477.25 136.715 480.343 135.968 483.842 135.968C487.212 135.968 490.22 136.693 492.866 138.144C495.554 139.595 497.623 141.664 499.074 144.352C500.567 146.997 501.314 150.048 501.314 153.504ZM492.034 150.944C491.991 148.64 491.159 146.805 489.538 145.44C487.916 144.032 485.932 143.328 483.586 143.328C481.367 143.328 479.49 144.011 477.954 145.376C476.46 146.699 475.543 148.555 475.202 150.944H492.034ZM527.502 136.032C531.726 136.032 535.139 137.376 537.742 140.064C540.344 142.709 541.646 146.421 541.646 151.2V172H532.686V152.416C532.686 149.6 531.982 147.445 530.574 145.952C529.166 144.416 527.246 143.648 524.814 143.648C522.339 143.648 520.376 144.416 518.926 145.952C517.518 147.445 516.814 149.6 516.814 152.416V172H507.854V136.544H516.814V140.96C518.008 139.424 519.523 138.229 521.358 137.376C523.235 136.48 525.283 136.032 527.502 136.032ZM560.598 143.904V161.056C560.598 162.251 560.875 163.125 561.43 163.68C562.027 164.192 563.009 164.448 564.374 164.448H568.534V172H562.902C555.35 172 551.574 168.331 551.574 160.992V143.904H547.35V136.544H551.574V127.776H560.598V136.544H568.534V143.904H560.598ZM607.939 153.504C607.939 154.784 607.853 155.936 607.683 156.96H581.763C581.976 159.52 582.872 161.525 584.451 162.976C586.029 164.427 587.971 165.152 590.275 165.152C593.603 165.152 595.971 163.723 597.379 160.864H607.043C606.019 164.277 604.056 167.093 601.155 169.312C598.253 171.488 594.691 172.576 590.467 172.576C587.053 172.576 583.981 171.829 581.251 170.336C578.563 168.8 576.451 166.645 574.915 163.872C573.421 161.099 572.674 157.899 572.674 154.272C572.674 150.603 573.421 147.381 574.915 144.608C576.408 141.835 578.499 139.701 581.187 138.208C583.875 136.715 586.968 135.968 590.467 135.968C593.837 135.968 596.845 136.693 599.491 138.144C602.179 139.595 604.248 141.664 605.699 144.352C607.192 146.997 607.939 150.048 607.939 153.504ZM598.659 150.944C598.616 148.64 597.784 146.805 596.163 145.44C594.541 144.032 592.557 143.328 590.211 143.328C587.992 143.328 586.115 144.011 584.579 145.376C583.085 146.699 582.168 148.555 581.827 150.944H598.659ZM623.439 142.048C624.591 140.171 626.084 138.699 627.919 137.632C629.796 136.565 631.929 136.032 634.319 136.032V145.44H631.951C629.135 145.44 627.001 146.101 625.551 147.424C624.143 148.747 623.439 151.051 623.439 154.336V172H614.479V136.544H623.439V142.048Z"
        fill="white" />
    <defs>
        <clipPath id="clip0_153_20">
            <rect width="154" height="143" fill="white" transform="translate(39 47)" />
        </clipPath>
    </defs>
</svg>